# xmcd CD database file
#
# Track frame offsets:
#	150
#	18580
#	42042
#	60415
#	94987
#
# Disc length: 4440 seconds
#
# Revision: 0
# Processed by: cddbd v1.5PL3 Copyright (c) Steve Scherf et al.
# Submitted via: CDex 1.50Beta7
#
DISCID=36115605
DTITLE=KIDSS ALIVVE - 2nd STAGE
DYEAR=2002
DGENRE=JPop
TTITLE0=2nd STAGE
TTITLE1=シグナル
TTITLE2=2nd STAGE (TV MIX)
TTITLE3=シグナル (TV MIX)
TTITLE4=Track05
EXTD=YEAR: 2002
EXTT0=
EXTT1=
EXTT2=
EXTT3=
EXTT4=
PLAYORDER=
